<?xml version="1.0" encoding="utf-8"?>
<!-- Generator: Adobe Illustrator 26.0.3, SVG Export Plug-In . SVG Version: 6.00 Build 0)  -->
<svg version="1.0" id="katman_1" xmlns="http://www.w3.org/2000/svg" xmlns:xlink="http://www.w3.org/1999/xlink" x="0px" y="0px"
	 viewBox="0 0 600 450" style="enable-background:new 0 0 600 450;" xml:space="preserve">
<style type="text/css">
	.st0{fill:#010202;}
</style>
<path class="st0" d="M286.7,241.5c0-2.3-0.9-4.6-2.6-6.2s-3.9-2.6-6.2-2.6H176.4c-2.3,0-4.6,0.9-6.2,2.6c-1.6,1.6-2.6,3.9-2.6,6.2
	c0,2.3,0.9,4.6,2.6,6.2c1.6,1.6,3.9,2.6,6.2,2.6h101.5c2.3,0,4.6-0.9,6.2-2.6S286.7,243.8,286.7,241.5L286.7,241.5z"/>
<path class="st0" d="M332.2,133.2v-13.1h17.1V100h-51.8v20.1h17.1v13.1c-19.5,1.6-38.2,8.4-54.1,19.7
	c-15.9,11.3-28.5,26.7-36.5,44.6c-0.2,0.5-0.4,1.1-0.5,1.6h-32.1c-2.3,0-4.6,0.9-6.2,2.6c-1.6,1.6-2.6,3.9-2.6,6.2
	c0,2.3,0.9,4.6,2.6,6.2c1.6,1.6,3.9,2.6,6.2,2.6h61.3c2.3,0,4.6-0.9,6.2-2.6c1.6-1.6,2.6-3.9,2.6-6.2c0-2.3-0.9-4.6-2.6-6.2
	c-1.6-1.6-3.9-2.6-6.2-2.6h-7.1c9.4-17.3,24.3-30.9,42.4-38.8c18-7.9,38.2-9.5,57.2-4.6c19.1,4.9,36,15.9,48,31.5
	c12.1,15.5,18.6,34.7,18.6,54.3c0,19.7-6.6,38.8-18.6,54.3c-12.1,15.5-29,26.6-48,31.5c-19.1,4.9-39.2,3.2-57.2-4.6
	c-18-7.9-32.9-21.5-42.4-38.8h17.2c2.3,0,4.6-0.9,6.2-2.6s2.6-3.9,2.6-6.2s-0.9-4.6-2.6-6.2s-3.9-2.6-6.2-2.6h-46.6
	c-2.3,0-4.6,0.9-6.2,2.6c-1.6,1.6-2.6,3.9-2.6,6.2s0.9,4.6,2.6,6.2c1.6,1.6,3.9,2.6,6.2,2.6h7.7c0.1,1,0.4,2,0.8,3
	c8,17.4,20.4,32.3,36,43.4s33.9,17.8,52.9,19.5c19,1.7,38.2-1.6,55.6-9.7c17.3-8.1,32.3-20.6,43.2-36.2c11-15.7,17.6-34,19.2-53
	c1.6-19.1-1.8-38.2-9.9-55.5c-8.1-17.3-20.7-32.2-36.4-43.1C369.6,141.3,351.3,134.8,332.2,133.2L332.2,133.2z"/>
<path class="st0" d="M314.7,171.7v78.6h78.6v-17.6h-61v-61H314.7z"/>
</svg>
